# xmcd
#
# Track frame offsets:
#	150
#	16437
#	29317
#	45250
#	63467
#	77795
#	92780
#	114129
#	126500
#	144632
#
# Disc length: 2125 seconds
#
# Revision: 0
# Processed by: cddbd v1.5.1PL2 Copyright (c) Steve Scherf et al.
# Submitted via: dBpowerAMP V4.0
#
DISCID=7f084b0a
DTITLE=Vince Gill - All American Country
DYEAR=2003
DGENRE=Country
TTITLE0=Cinderella
TTITLE1=Everybody's Sweetheart
TTITLE2=If It Weren't For Him
TTITLE3=True Love
TTITLE4=Turn Me Loose
TTITLE5=Victim Of Life's Circumstances
TTITLE6=With You
TTITLE7=I Can't Hold Back
TTITLE8=Fool Fool
TTITLE9=Savannah (Don't You Ever Think Of Me)
EXTD=
EXTT0=
EXTT1=
EXTT2=
EXTT3=
EXTT4=
EXTT5=
EXTT6=
EXTT7=
EXTT8=
EXTT9=
PLAYORDER=
